<?xml version="1.0" encoding="UTF-8"?>
<!DOCTYPE svg PUBLIC "-//W3C//DTD SVG 1.1//EN" "http://www.w3.org/Graphics/SVG/1.1/DTD/svg11.dtd">
<!-- Creator: CorelDRAW -->
<svg xmlns="http://www.w3.org/2000/svg" xml:space="preserve" width="1080px" height="1070px" version="1.1" style="shape-rendering:geometricPrecision; text-rendering:geometricPrecision; image-rendering:optimizeQuality; fill-rule:evenodd; clip-rule:evenodd"
viewBox="0 0 1080 1070"
 xmlns:xlink="http://www.w3.org/1999/xlink"
 xmlns:xodm="http://www.corel.com/coreldraw/odm/2003">
 <defs>
  <style type="text/css">
   <![CDATA[
    .str0 {stroke:#F6F4EF;stroke-width:5;stroke-miterlimit:22.9256}
    .fil0 {fill:none}
    .fil1 {fill:#F6F4EF}
   ]]>
  </style>
 </defs>
 <g id="Capa_x0020_1">
  <metadata id="CorelCorpID_0Corel-Layer"/>
  <g id="_1702192476864">
   <circle class="fil0" cx="536.355" cy="532.651" r="521.636"/>
   <circle class="fil1" cx="536.355" cy="532.651" r="39.838"/>
   <path class="fil0 str0" d="M137.943 559.689c4.055,0.761 8.082,1.484 12.086,2.191"/>
   <path class="fil0 str0" d="M174.726 565.942c166.119,25.372 283.558,2.977 368.808,-49.905"/>
   <g>
    <g>
     <g>
      <path class="fil0 str0" d="M352.202 182.838c2.831,3.001 5.616,5.999 8.373,8.986"/>
      <path class="fil0 str0" d="M377.338 210.411c243.817,276.661 167.42,480.348 18.588,659.066"/>
      <path class="fil0 str0" d="M387.875 879.054c-2.642,3.101 -5.321,6.217 -8.009,9.315"/>
     </g>
    </g>
   </g>
   <path class="fil0 str0" d="M733.351 187.112c-2.831,3.001 -5.616,5.999 -8.374,8.986"/>
   <path class="fil0 str0" d="M708.215 214.684c-243.817,276.662 -167.42,480.349 -18.588,659.067"/>
   <path class="fil0 str0" d="M697.678 883.328c2.642,3.101 5.321,6.217 8.009,9.315"/>
   <path class="fil0 str0" d="M926.584 546.313c-4.016,0.943 -8.006,1.847 -11.974,2.735"/>
   <path class="fil0 str0" d="M890.122 554.224c-164.148,32.732 -282.194,15.939 -369.647,-32.587"/>
  </g>
 </g>
</svg>
