<?xml version="1.0" encoding="UTF-8"?>
<!DOCTYPE svg PUBLIC "-//W3C//DTD SVG 1.1//EN" "http://www.w3.org/Graphics/SVG/1.1/DTD/svg11.dtd">
<!-- Creator: CorelDRAW -->
<svg xmlns="http://www.w3.org/2000/svg" xml:space="preserve" width="1890px" height="1200px" version="1.1" style="shape-rendering:geometricPrecision; text-rendering:geometricPrecision; image-rendering:optimizeQuality; fill-rule:evenodd; clip-rule:evenodd"
viewBox="0 0 1890 1199.999"
 xmlns:xlink="http://www.w3.org/1999/xlink"
 xmlns:xodm="http://www.corel.com/coreldraw/odm/2003">
 <defs>
  <style type="text/css">
   <![CDATA[
    .str1 {stroke:#F6F4EF;stroke-width:5;stroke-miterlimit:22.9256}
    .str0 {stroke:#F6F4EF;stroke-width:5;stroke-miterlimit:22.9256}
    .fil0 {fill:none}
   ]]>
  </style>
 </defs>
 <g id="Capa_x0020_1">
  <metadata id="CorelCorpID_0Corel-Layer"/>
  <circle class="fil0 str0" transform="matrix(0.0535503 -0.888369 0.888369 0.0535503 810.07 686.333)" r="85.908"/>
  <path class="fil0 str1" d="M1398.852 1070.5c-3.496,1.341 -6.972,2.638 -10.429,3.914"/>
  <path class="fil0 str1" d="M1367.613 1081.778c-329.733,111.986 -455.869,-78.379 -535.341,-322.302m-42.509 -147.635c-65.292,-248.059 -115.557,-500.674 -294.654,-529.782"/>
  <path class="fil0 str1" d="M484.443 80.618c-3.555,-0.391 -7.133,-0.695 -10.788,-0.916"/>
  <path class="fil0 str1" d="M1424.242 304.048c-330.885,-52.273 -479.696,115.849 -580.51,312.375m-65.534 142.327c-80.711,187.866 -147.067,360.417 -311.562,356.56"/>
  <path class="fil0 str1" d="M1409.393 96.814c3.37,0.021 6.792,0.107 10.267,0.279"/>
 </g>
</svg>
