<?xml version="1.0" encoding="UTF-8"?>
<svg id="Capa_2" data-name="Capa 2" xmlns="http://www.w3.org/2000/svg" viewBox="0 0 895.87 155.23">
  <defs>
    <style>
      .cls-1 {
        fill: #5cc781;
      }

      .cls-2 {
        opacity: .5;
      }

      .cls-2, .cls-3 {
        fill: #f6f4ef;
      }
    </style>
  </defs>
  <g id="Capa_1-2" data-name="Capa 1">
    <rect class="cls-1" x="0" y="0" width="895.87" height="155.23" rx="77.62" ry="77.62"/>
    <g>
      <path class="cls-3" d="M669.61,62.71c1.16,1.34,2.05,2.42,2.72,4.07,1.27,3.16,1.08,5.45,3.35,4.23,2.34-1.26,3.04-4.77,2.18-7.73-.7-2.39-2.69-3.75-4.95-4.63-10.68-4.15-20.32,.02-24.76,10.6-3.78,9.03-2.29,22.02,.09,27.22,3.29,7.19,8.76,9.63,15.96,10.16,6.25,.46,10.5-2.89,13.99-7.96-1.81-.91-2.58,1.31-3.49,1.83-5.95,3.4-11.52,1.26-15.97-3.73-7.53-8.43-7.1-26.39,.8-34.42,3.18-3.23,7.13-3.03,10.07,.36Z"/>
      <path class="cls-3" d="M735.43,63.93l9.07-1.13c.43-.05,.75-.42,.75-.85v-1.95c0-.44-.32-.8-.76-.85-.74-.08-7.17-.7-9.06-.84v-7.17c0-.73-.59-1.32-1.32-1.32-.37,0-.72,.15-.97,.42l-10.43,11c-.26,.27-.4,.63-.4,1h0c0,.82,.66,1.49,1.49,1.48h1.45c.83-.02,1.5,.65,1.5,1.47l.23,23.14,.68,8.39c.54,8.65,2.58,9.63,5.29,10.05,4.17,.64,9.29-1.79,13.02-6.29,.27-.32,.04-.82-.38-.85-.71-.05-1.47,.2-2.06,.43-2.32,.91-7.31,1.75-8.09-.56V63.93Z"/>
      <path class="cls-3" d="M496.82,93.19c-3.4-.03-6.3,2.79-6.37,6.2-.07,3.46,2.63,6.2,6.26,6.23,1.5,.01,2.72-.43,3.69-1.22,3.17-2.54,3.4-7.5,.18-9.96-1.04-.8-2.33-1.24-3.75-1.25Z"/>
      <path class="cls-3" d="M758.47,49.07c1.71,.11,3.09-.45,4.07-1.53,1.6-1.77,1.59-4.42,.4-6.49-.72-1.26-1.84-2.16-3.67-2.22-3.21-.09-5.3,1.43-5.68,4.83-.42,3.73,1.71,5.21,4.89,5.41Z"/>
      <path class="cls-3" d="M397.91,97.48h-5.82V62.71h0v-.09h4.97c1.5,0,2.72-1.22,2.72-2.72h0v-2.59c0-1.85-1.5-3.35-3.35-3.35h-4.36v-7.14l-.57-14.37-10.01,4.19-1.4,17.33h-3.46c-.19,0-.36,.02-.54,.05-.59,.11-1.12,.38-1.54,.77-.66,.79-.82,2.04-.82,3.39,0,1.41,.14,2.81,.87,3.66,.54,.48,1.24,.78,2.02,.78h3.45v1.1c.19,.55,.23,1.27,.25,2.14,.19,10.09,.59,20.17,.94,30.25,.2,5.8,2.07,8.87,6.46,9.94h7.82c2.44-.23,4.35-.93,4.35-4.37,0-2.3-.67-3.61-2.02-4.21Z"/>
      <path class="cls-2" d="M470.51,56.01h-.28s.08,0,.12,0c.06,0,.11,0,.17,0Z"/>
      <path class="cls-2" d="M470.23,56.01h-.6c-.13,0-.27,.02-.4,.03,.37-.02,.74-.03,1.12-.02-.04,0-.08,0-.12,0Z"/>
      <path class="cls-3" d="M762.66,99.45l-1.01-39.88c-.02-.89-1.04-1.4-1.76-.87l-8.92,6.5c-.22,.15-.27,.45-.12,.66l2.96,3.48c.14,.19,.21,.41,.22,.64,0,0-.03,29.48-.11,29.64-.33,.62-1.35,2.21-3.62,3.31-.42,.2-.7,.6-.7,1.07h0c0,.64,.52,1.16,1.16,1.16h16.21c.61,0,1.11-.5,1.11-1.11h0c0-.55-.41-1.02-.96-1.1-1.51-.2-4.28-.93-4.45-3.51Z"/>
      <path class="cls-3" d="M860.93,103.25c-1.52-.37-3.47-1.4-3.63-4.3h0v-27.97s-.42-12.14-11.75-13.82c0,0-9.97-.29-15.15,6.97v-5.9h-2.69l-.59,.41-9.12,6.32v1.72s.11-.03,.29-.05c.93-.11,3.85-.09,3.32,4.77h0v28.72s.25,2.01-3.61,3.14v1.67h17.46v-1.62s-.38-.09-.93-.27c-1.37-.44-3.82-1.44-4.31-3.04h0v-29c.1-.54,.23-1.06,.39-1.55,.82-2.27,3.16-6.62,9.13-6.5,2.57,.26,4.91,1.09,6.58,2.69,.2,.19,.38,.42,.56,.64,.69,.86,1.27,1.93,1.64,3.3,.08,.32,.17,.62,.22,.97,0,.05,.01,.11,.02,.16v29.48s-1.24,2.38-4.33,3.46v1.52h18.31v-1.72s-.81,.04-1.81-.2Z"/>
      <path class="cls-3" d="M542.89,96.48c-.84,0-1.65,.33-2.26,.91-.18,.18-.42,.37-.71,.58-8.39,5.38-17.18,2.9-21.47-6.04-2-4.17-2.27-8.56-2.27-13.09,0-1.71,.28-2.65,1.31-3.09,.48-.2,26.09-1.15,26.09-1.15l.07-2.35c.03-3.2-1-8.97-7.89-13.11-9.03-4.48-20.27-.98-25.01,7.94-4.55,8.56-4.65,17.63-1.92,26.62,2.25,7.42,7.36,12.59,15.44,13.05,7.88,.45,14.59-2.34,19.33-9.49,.22-.33-.03-.79-.43-.79h-.28Zm-16.19-37.28c9.45-.92,9.19,7.86,9.19,7.86,.92,5.79-10.99,5.92-16.17,5.71-1.4-.06-2.53-1.19-2.6-2.59-.53-11.43,9.58-10.98,9.58-10.98Z"/>
      <path class="cls-3" d="M641.97,102.01c-3.42,.06-4.44-2.8-4.7-5.11,0-.06-.02-38.65-.02-38.65h-8.67c-2.97,0-5.36,.75-5.36,1.67,0,.73,1.54,1.36,3.68,1.58,.96,.1,1.69,.91,1.69,1.87h0c.03,.22,.36,22.09,.02,30.48-.18,4.44-3.88,6.86-8.33,7.31-5.81,.59-9.57-2.94-10.18-9.93v-31.71h-8.7c-2.99,0-5.41,.72-5.41,1.6,0,.56,.99,1.06,2.5,1.34,1.69,.32,2.91,1.82,2.91,3.54,0,0,.5,24.95,.69,27.62,.5,7.06,2.85,10.38,9.7,12.44,6.85,2.05,11.46-2.22,16.17-6.16,.76,2.27-.54,5.59,2.62,6.06,4.21,.62,8.05-.94,11.41-3.93v-.02Z"/>
      <path class="cls-3" d="M720.06,99.13c-1.01-1.23-1.99,.36-2.76,.99-2.72,2.23-3.53-.61-3.88-2.62-.37-2.11-.24-4.31-.31-6.47-.3-9,.6-18.02-.85-27.01-.63-3.95-3.19-5.85-6.53-6.79-7.87-2.21-17.1,2.49-20.42,9.95-.8,1.8-1.55,2.95-.71,4.53,.86,1.61,3.54,.63,4.77-1.03,2.03-2.75,3.98-5.55,6.05-8.27,1.94-2.56,8.93-3.29,9.58,.63v13.9c0,.39-.2,.76-.52,.97-2.32,1.51-11.69,7.53-14.9,10.39-3.07,2.73-4.93,5.7-4.96,9.98,0,7.9,4.3,9.14,11.38,7.13,1.72-.49,3.12-2.03,4.42-3.22,2.22-2.03,3.66-1.65,5.72,.49,4.83,5.02,9.21,4.63,13.18-.81,.53-.73,1.77-1.52,.76-2.75Zm-18.4-1.44c-1.43,2.07-3.48,3.37-5.99,2.57-2.24-.72-2.56-2.89-2.79-5.16-.43-4.3,1-7.61,4.05-10.31,1.68-1.49,4-3.08,6.51-2.59,1.9,.37,1.49,2.41,1.49,5.4,.31,3.93-1.3,7.23-3.28,10.09Z"/>
      <path class="cls-3" d="M436.24,62.1c-1.64-2.01-3.56-3.53-5.79-4.56-2.22-1.03-4.7-1.54-7.42-1.54s-5.1,.51-7.32,1.54c-2.21,1.02-4.13,2.55-5.76,4.56-1.64,2.01-2.89,4.5-3.77,7.48-.88,2.98-1.32,6.4-1.32,10.26v4c0,3.87,.44,7.29,1.32,10.26,.88,2.98,2.14,5.47,3.78,7.48,1.65,2.01,3.58,3.52,5.81,4.53,2.22,1.02,4.67,1.52,7.34,1.52s5.15-.5,7.36-1.52c2.21-1.01,4.13-2.52,5.77-4.53,1.63-2.01,2.89-4.5,3.77-7.48,.87-2.97,1.31-6.39,1.31-10.26v-4c0-3.86-.44-7.29-1.31-10.26-.88-2.98-2.14-5.47-3.77-7.48m-4.83,21.74c0,2.49-.17,4.66-.51,6.51-.34,1.85-.86,3.4-1.55,4.62-.69,1.23-1.56,2.15-2.6,2.76-1.03,.61-2.25,.92-3.64,.92-1.25,0-2.38-.31-3.41-.92-1.02-.61-1.9-1.53-2.64-2.76s-1.3-2.77-1.7-4.62c-.4-1.86-.59-4.03-.59-6.51v-4c0-2.45,.2-4.61,.59-6.46,.4-1.86,.97-3.41,1.7-4.65,.74-1.25,1.61-2.17,2.62-2.79,1-.61,2.12-.92,3.34-.92s2.39,.31,3.43,.92c1.03,.62,1.92,1.54,2.66,2.79,.74,1.24,1.31,2.79,1.7,4.65,.4,1.85,.59,4.01,.59,6.46v4Z"/>
      <path class="cls-3" d="M484.66,72.99c-.54-10.26-6.65-16.84-14.31-16.98-.38,0-.75,0-1.12,.02-.05,0-.1,0-.15,0-.43,.03-.85,.08-1.27,.14,0,0-.01,0-.02,0-.37,.06-.73,.14-1.09,.22-.15,.03-.29,.07-.43,.11-.21,.06-.43,.12-.63,.18-.18,.05-.35,.11-.52,.17-.18,.06-.36,.13-.53,.2-.17,.07-.34,.13-.51,.2-.22,.09-.44,.19-.65,.29-.1,.05-.2,.09-.29,.14-3.29,1.61-5.28,2.57-5.28,2.57v-.59c0-1.36-1.1-2.47-2.47-2.47h-7.7v70.82h12.08v-23.88c.97,.29,1.67,.42,2.28,.71,11.88,5.47,22.29-.91,22.67-14.02,.17-5.94,.25-11.91-.06-17.85Zm-12.57,22.26l-.09,.17c-2.3,4.58-7.84,5.19-10.64,.84-4.35-5.6-5.09-31.03,4.8-31.65,4.62,.1,6.72,5.04,7.45,9.27,.9,6.73,1.25,15.38-1.52,21.37Z"/>
      <g>
        <path class="cls-3" d="M589.08,96.97v-2.8s0,.03,0,.05c-.12,1.04-.14,1.97,0,2.75Z"/>
        <path class="cls-3" d="M594.29,99.85h-5.22v-2.88c-.14-.78-.12-1.71,0-2.75,0-.02,0-.03,0-.05,0-.03,0-.07,0-.1v-8.53c-.05-4.03-.03-8.06,0-12.1v-26.11l-.8-15.19-1.68,.8-9.62,4.57-.49,.23,.33,.25,3.97,3.01v17.93c-1.14-.32-2.46-.54-3.8-.7-.88,.08-1.9,.04-3.05-.11-.64-.09-1.27-.14-1.89-.19-2.16-.04-3.86,.03-4.32,.05-.01,0-.02,0-.03,0-4.95,.54-9.25,2.8-12.72,7.56-6.58,9.03-7.18,23.76-.86,32.94,5.42,7.88,13.56,10.31,21.54,6.66,1.17-.54,2.54-1.89,3.8-2.11,.04,0,.08-.02,.12-.02,1.39-.23,1.91,.81,2.1,1.79,.17,.88,1.02,1.45,1.91,1.36,.31-.03,.58-.07,.77-.1,6.69-1.32,10.28-6.17,10.28-6.17h-.34Zm-13.94-4.45c-.33,5.88-4.6,8.49-10.14,6.26-6.14-2.46-9.84-6.87-10.61-13.59-.79-6.86-.42-13.56,2.23-20.01,1.26-3.06,3.06-5.78,6.36-6.9,5.59-1.91,10.76-1.13,11.52,5.75,.61,5.57,.39,11.1,.69,15.23,0,5.36,.18,9.32-.04,13.26Z"/>
      </g>
      <path class="cls-3" d="M813.17,76.16c-1.33-10.54-8.86-17.85-19.52-18.98-9.8-1.04-17.52,4.77-20.97,14.58-2.35,6.67-2.17,13.36-.11,20.02,3.45,11.16,11.68,16.63,23.2,14.46,11.01-2.07,18.14-12.18,17.8-25.25-.13-1.61-.19-3.23-.39-4.83Zm-10.9,20.58c-1.75,4.37-5.03,7.17-9.72,7.46-4.56,.28-8.07-2.21-9.89-6.27-4.95-11.04-5.11-22.34,.2-33.18,3.45-7.05,11.27-7.25,16.46-1.01,4.52,5.44,5.43,11.96,5.11,18.76,.22,4.88-.33,9.67-2.16,14.24Z"/>
    </g>
    <g>
      <path class="cls-3" d="M65.52,50.52v42.82c0,3.46,.11,5.9,.34,7.34,.22,1.44,.85,2.53,1.87,3.26,1.02,.74,2.72,1.1,5.09,1.1v2.3h-18.24v-2.3c2.37,0,4.06-.37,5.09-1.1,1.02-.73,1.65-1.82,1.87-3.26,.22-1.44,.34-3.89,.34-7.34V44.18c-1.67-2.62-3.26-4.46-4.8-5.52-1.54-1.06-3.39-1.58-5.57-1.58v-2.3h14.02l30.91,53.66V48.79c0-3.46-.11-5.9-.34-7.34-.22-1.44-.85-2.53-1.87-3.26-1.02-.74-2.72-1.1-5.09-1.1v-2.3h18.24v2.3c-2.37,0-4.06,.37-5.09,1.1-1.02,.74-1.65,1.82-1.87,3.26-.23,1.44-.34,3.89-.34,7.34l.1,59.81h-1.63l-33.02-58.08Z"/>
      <path class="cls-3" d="M122.88,97.36c.67,2.5,2.16,3.74,4.46,3.74,2.69,0,5.47-2.24,8.35-6.72v-22.94c0-3.46-.08-5.9-.24-7.34-.16-1.44-.61-2.53-1.34-3.26-.74-.74-1.97-1.1-3.7-1.1v-2.3h11.81v33.98c0,3.33,.16,5.71,.48,7.15,.32,1.44,1.02,2.16,2.11,2.16,.58,0,1.44-.32,2.59-.96l1.15,2.02-10.94,6.34h-1.92v-9.89c-.19,.26-.9,1.39-2.11,3.41-1.22,2.02-2.62,3.6-4.22,4.75-1.6,1.15-3.26,1.73-4.99,1.73-3.33,0-5.66-1.79-7.01-5.38-1.34-3.58-2.02-8-2.02-13.25v-18.05c0-3.46-.08-5.9-.24-7.34-.16-1.44-.61-2.53-1.34-3.26-.74-.74-1.97-1.1-3.7-1.1v-2.3h11.81v31.2c0,3.33,.34,6.24,1.01,8.74Z"/>
      <path class="cls-3" d="M154.03,70.58c1.09-3.97,2.8-7.28,5.14-9.94,2.34-2.66,5.29-3.98,8.88-3.98,4.48,0,7.89,1.99,10.22,5.95,2.34,3.97,3.5,8.67,3.5,14.11v.19h-23.62c0,3.39,.42,6.78,1.25,10.18,.83,3.39,2.17,6.24,4.03,8.54,1.86,2.3,4.16,3.46,6.91,3.46s4.67-1.01,6.14-3.02c1.47-2.02,2.69-4.69,3.65-8.02l1.73,.48c-.38,3.01-1.15,6-2.3,8.98-1.15,2.98-2.78,5.49-4.9,7.54-2.11,2.05-4.61,3.07-7.49,3.07-3.2,0-5.9-1.23-8.11-3.7-2.21-2.46-3.87-5.63-4.99-9.5-1.12-3.87-1.68-7.92-1.68-12.14s.54-8.22,1.63-12.19Zm6.58-5.76c-1.38,2.62-2.19,5.5-2.45,8.64h15.36c-.13-3.46-.77-6.42-1.92-8.88s-2.91-3.7-5.28-3.7-4.34,1.31-5.71,3.94Z"/>
      <path class="cls-3" d="M187.06,62.09c-1.02-1.57-2.43-2.35-4.22-2.35v-2.3h17.86v2.3c-1.98,0-3.38,.23-4.18,.67-.8,.45-1.2,1.22-1.2,2.3,0,.77,.19,1.81,.58,3.12,.38,1.31,.61,2.13,.67,2.45l.77,2.59,6.82,23.14,6.53-23.14c.13-.45,.48-1.65,1.06-3.6,.58-1.95,.86-3.44,.86-4.46,0-1.09-.4-1.87-1.2-2.35-.8-.48-2.19-.72-4.18-.72v-2.3h14.3v2.3c-1.79,0-3.2,.79-4.22,2.35-1.02,1.57-2.15,4.5-3.36,8.78l-10.75,37.25h-1.82l-10.94-37.25c-1.22-4.29-2.34-7.21-3.36-8.78Z"/>
      <path class="cls-3" d="M224.6,68.71c1.41-3.81,3.38-6.77,5.9-8.88,2.53-2.11,5.42-3.17,8.69-3.17s6.16,1.06,8.69,3.17c2.53,2.11,4.5,5.07,5.9,8.88,1.41,3.81,2.11,8.21,2.11,13.2s-.71,9.57-2.11,13.54c-1.41,3.97-3.39,7.07-5.95,9.31-2.56,2.24-5.44,3.36-8.64,3.36s-6.08-1.12-8.64-3.36c-2.56-2.24-4.54-5.34-5.95-9.31-1.41-3.97-2.11-8.48-2.11-13.54s.7-9.39,2.11-13.2Zm22.18,29.76c1.15-3.68,1.73-7.86,1.73-12.53,0-6.21-.8-12-2.4-17.38-1.6-5.38-4.29-8.06-8.06-8.06-2.94,0-5.06,1.7-6.34,5.09-1.28,3.39-1.92,7.42-1.92,12.1,0,3.65,.32,7.49,.96,11.52,.64,4.03,1.76,7.5,3.36,10.42,1.6,2.91,3.71,4.37,6.34,4.37,3.07,0,5.18-1.84,6.34-5.52Z"/>
      <path class="cls-3" d="M281.52,70.58c1.09-3.97,2.8-7.28,5.14-9.94,2.34-2.66,5.29-3.98,8.88-3.98,4.48,0,7.89,1.99,10.22,5.95,2.34,3.97,3.5,8.67,3.5,14.11v.19h-23.62c0,3.39,.42,6.78,1.25,10.18,.83,3.39,2.17,6.24,4.03,8.54,1.86,2.3,4.16,3.46,6.91,3.46s4.67-1.01,6.14-3.02c1.47-2.02,2.69-4.69,3.65-8.02l1.73,.48c-.38,3.01-1.15,6-2.3,8.98-1.15,2.98-2.78,5.49-4.9,7.54-2.11,2.05-4.61,3.07-7.49,3.07-3.2,0-5.9-1.23-8.11-3.7-2.21-2.46-3.87-5.63-4.99-9.5-1.12-3.87-1.68-7.92-1.68-12.14s.54-8.22,1.63-12.19Zm6.58-5.76c-1.38,2.62-2.19,5.5-2.45,8.64h15.36c-.13-3.46-.77-6.42-1.92-8.88s-2.91-3.7-5.28-3.7-4.34,1.31-5.71,3.94Z"/>
      <path class="cls-3" d="M334.9,105.05c1.73,0,2.96-.37,3.7-1.1,.73-.73,1.18-1.82,1.34-3.26,.16-1.44,.24-3.89,.24-7.34v-17.18c0-3.33-.34-6.24-1.01-8.74-.67-2.5-2.16-3.74-4.46-3.74-2.69,0-5.47,2.24-8.35,6.72v22.94c0,3.46,.08,5.9,.24,7.34,.16,1.44,.61,2.53,1.34,3.26,.74,.74,1.97,1.1,3.7,1.1v2.3h-17.09v-2.3c1.73,0,2.96-.37,3.7-1.1,.73-.73,1.18-1.82,1.34-3.26,.16-1.44,.24-3.89,.24-7.34v-19.97c0-3.33-.16-5.71-.48-7.15-.32-1.44-1.02-2.16-2.11-2.16-.58,0-1.44,.32-2.59,.96l-1.15-2.02,10.94-6.34h1.92v9.89c.19-.25,.9-1.39,2.11-3.41,1.21-2.02,2.62-3.6,4.22-4.75,1.6-1.15,3.26-1.73,4.99-1.73,3.33,0,5.66,1.79,7.01,5.38,1.34,3.58,2.02,8,2.02,13.25v18.05c0,3.46,.08,5.9,.24,7.34,.16,1.44,.61,2.53,1.34,3.26,.74,.74,1.97,1.1,3.7,1.1v2.3h-17.09v-2.3Z"/>
    </g>
  </g>
</svg>