<?xml version="1.0" encoding="UTF-8"?>
<svg id="Capa_2" data-name="Capa 2" xmlns="http://www.w3.org/2000/svg" viewBox="0 0 311.02 109.91">
  <defs>
    <style>
      .cls-1 {
        fill: none;
        stroke: #5cc781;
        stroke-miterlimit: 10;
      }

      .cls-2 {
        opacity: .5;
      }

      .cls-2, .cls-3 {
        fill: #f6f4ef;
      }
    </style>
  </defs>
  <g id="Capa_1-2" data-name="Capa 1">
    <g>
      <rect class="cls-1" x=".5" y=".5" width="310.02" height="108.91" rx="54.46" ry="54.46"/>
      <g>
        <path class="cls-3" d="M176.95,67.2c.49,.56,.86,1.01,1.13,1.7,.53,1.32,.45,2.28,1.4,1.77,.97-.53,1.27-1.99,.91-3.23-.29-1-1.12-1.57-2.07-1.93-4.46-1.73-8.48,0-10.33,4.42-1.58,3.77-.95,9.19,.04,11.36,1.37,3,3.66,4.02,6.66,4.24,2.61,.19,4.38-1.21,5.84-3.32-.76-.38-1.08,.55-1.46,.76-2.48,1.42-4.81,.53-6.67-1.56-3.14-3.52-2.96-11.01,.34-14.36,1.33-1.35,2.98-1.26,4.2,.15Z"/>
        <path class="cls-3" d="M204.42,67.71l3.79-.47c.18-.02,.31-.17,.31-.35v-.81c0-.18-.13-.33-.32-.35-.31-.03-2.99-.29-3.78-.35v-2.99c0-.3-.25-.55-.55-.55-.15,0-.3,.06-.4,.18l-4.35,4.59c-.11,.11-.17,.26-.17,.42h0c0,.34,.28,.62,.62,.62h.61c.34,0,.63,.27,.63,.61l.1,9.66,.28,3.5c.23,3.61,1.08,4.02,2.21,4.19,1.74,.27,3.88-.75,5.43-2.63,.11-.13,.02-.34-.16-.35-.3-.02-.61,.08-.86,.18-.97,.38-3.05,.73-3.38-.23v-14.85Z"/>
        <path class="cls-3" d="M104.83,79.92c-1.42-.01-2.63,1.16-2.66,2.59-.03,1.44,1.1,2.59,2.61,2.6,.63,0,1.14-.18,1.54-.51,1.32-1.06,1.42-3.13,.07-4.16-.44-.33-.97-.52-1.57-.52Z"/>
        <path class="cls-3" d="M214.03,61.5c.71,.04,1.29-.19,1.7-.64,.67-.74,.66-1.84,.17-2.71-.3-.52-.77-.9-1.53-.92-1.34-.04-2.21,.6-2.37,2.01-.18,1.56,.71,2.17,2.04,2.26Z"/>
        <path class="cls-3" d="M63.56,81.71h-2.43v-14.51h0v-.04h2.07c.63,0,1.14-.51,1.14-1.14h0v-1.08c0-.77-.63-1.4-1.4-1.4h-1.82v-2.98l-.24-6-4.18,1.75-.58,7.23h-1.44c-.08,0-.15,0-.23,.02-.25,.04-.47,.16-.64,.32-.27,.33-.34,.85-.34,1.41,0,.59,.06,1.17,.36,1.53,.22,.2,.52,.33,.84,.33h1.44v.46c.08,.23,.1,.53,.1,.89,.08,4.21,.25,8.42,.39,12.62,.08,2.42,.87,3.7,2.7,4.15h3.27c1.02-.1,1.82-.39,1.82-1.82,0-.96-.28-1.51-.84-1.76Z"/>
        <path class="cls-2" d="M93.85,64.4h-.12s.03,0,.05,0c.02,0,.05,0,.07,0Z"/>
        <path class="cls-2" d="M93.73,64.4h-.25c-.06,0-.11,0-.17,.01,.15,0,.31-.01,.47-.01-.02,0-.03,0-.05,0Z"/>
        <path class="cls-3" d="M215.78,82.53l-.42-16.64c0-.37-.43-.58-.74-.36l-3.72,2.71c-.09,.06-.11,.19-.05,.28l1.24,1.45c.06,.08,.09,.17,.09,.27,0,0-.01,12.3-.05,12.37-.14,.26-.56,.92-1.51,1.38-.17,.08-.29,.25-.29,.44h0c0,.27,.22,.49,.49,.49h6.76c.26,0,.46-.21,.46-.46h0c0-.23-.17-.43-.4-.46-.63-.08-1.79-.39-1.86-1.47Z"/>
        <path class="cls-3" d="M256.79,84.12c-.63-.15-1.45-.58-1.51-1.79h0v-11.67s-.18-5.07-4.9-5.77c0,0-4.16-.12-6.32,2.91v-2.46h-1.12l-.25,.17-3.81,2.64v.72s.05-.01,.12-.02c.39-.05,1.6-.04,1.39,1.99h0v11.99s.11,.84-1.51,1.31v.7h7.29v-.68s-.16-.04-.39-.11c-.57-.18-1.59-.6-1.8-1.27h0v-12.1c.04-.23,.1-.44,.16-.65,.34-.95,1.32-2.76,3.81-2.71,1.07,.11,2.05,.46,2.75,1.12,.08,.08,.16,.17,.23,.27,.29,.36,.53,.81,.69,1.38,.03,.13,.07,.26,.09,.4,0,.02,0,.04,0,.07v12.3s-.52,.99-1.81,1.45v.63h7.64v-.72s-.34,.02-.76-.08Z"/>
        <path class="cls-3" d="M124.06,81.29c-.35,0-.69,.14-.94,.38-.08,.07-.17,.15-.3,.24-3.5,2.24-7.17,1.21-8.96-2.52-.84-1.74-.95-3.57-.95-5.46,0-.71,.12-1.11,.55-1.29,.2-.08,10.89-.48,10.89-.48l.03-.98c.01-1.33-.42-3.75-3.29-5.47-3.77-1.87-8.46-.41-10.44,3.31-1.9,3.57-1.94,7.36-.8,11.11,.94,3.1,3.07,5.25,6.44,5.45,3.29,.19,6.09-.98,8.07-3.96,.09-.14-.01-.33-.18-.33h-.12Zm-6.76-15.56c3.95-.38,3.83,3.28,3.83,3.28,.39,2.41-4.58,2.47-6.75,2.38-.59-.02-1.06-.5-1.08-1.08-.22-4.77,4-4.58,4-4.58Z"/>
        <path class="cls-3" d="M165.41,83.6c-1.43,.02-1.85-1.17-1.96-2.13,0-.02,0-16.13,0-16.13h-3.62c-1.24,0-2.24,.31-2.24,.7,0,.31,.64,.57,1.53,.66,.4,.04,.7,.38,.7,.78h0c.01,.09,.15,9.22,0,12.72-.08,1.85-1.62,2.86-3.48,3.05-2.43,.25-4-1.23-4.25-4.15v-13.24h-3.63c-1.25,0-2.26,.3-2.26,.67,0,.24,.42,.44,1.04,.56,.71,.13,1.22,.76,1.22,1.48,0,0,.21,10.41,.29,11.53,.21,2.95,1.19,4.33,4.05,5.19,2.86,.86,4.78-.93,6.75-2.57,.32,.95-.23,2.33,1.09,2.53,1.76,.26,3.36-.39,4.76-1.64h0Z"/>
        <path class="cls-3" d="M198,82.4c-.42-.51-.83,.15-1.15,.42-1.13,.93-1.47-.25-1.62-1.09-.16-.88-.1-1.8-.13-2.7-.13-3.76,.25-7.52-.35-11.27-.27-1.65-1.33-2.44-2.73-2.83-3.28-.92-7.13,1.04-8.52,4.15-.33,.75-.65,1.23-.3,1.89,.36,.67,1.48,.26,1.99-.43,.85-1.15,1.66-2.32,2.52-3.45,.81-1.07,3.73-1.38,4,.26v5.8c0,.16-.08,.32-.22,.4-.97,.63-4.88,3.14-6.22,4.34-1.28,1.14-2.06,2.38-2.07,4.17,0,3.3,1.79,3.82,4.75,2.98,.72-.2,1.3-.85,1.85-1.34,.93-.85,1.53-.69,2.39,.2,2.01,2.09,3.84,1.93,5.5-.34,.22-.3,.74-.63,.32-1.15Zm-7.68-.6c-.6,.86-1.45,1.41-2.5,1.07-.93-.3-1.07-1.2-1.16-2.15-.18-1.8,.42-3.18,1.69-4.3,.7-.62,1.67-1.29,2.72-1.08,.79,.16,.62,1.01,.62,2.25,.13,1.64-.54,3.02-1.37,4.21Z"/>
        <path class="cls-3" d="M79.55,66.94c-.68-.84-1.49-1.47-2.42-1.9-.93-.43-1.96-.64-3.1-.64s-2.13,.21-3.06,.64c-.92,.43-1.72,1.06-2.4,1.9-.68,.84-1.2,1.88-1.57,3.12-.37,1.24-.55,2.67-.55,4.28v1.67c0,1.61,.18,3.04,.55,4.28,.37,1.24,.89,2.28,1.58,3.12,.69,.84,1.49,1.47,2.42,1.89,.93,.42,1.95,.63,3.06,.63s2.15-.21,3.07-.63c.92-.42,1.72-1.05,2.41-1.89,.68-.84,1.2-1.88,1.57-3.12,.36-1.24,.55-2.67,.55-4.28v-1.67c0-1.61-.18-3.04-.55-4.28-.37-1.24-.89-2.28-1.57-3.12m-2.02,9.07c0,1.04-.07,1.94-.21,2.72-.14,.77-.36,1.42-.65,1.93-.29,.51-.65,.9-1.08,1.15-.43,.26-.94,.39-1.52,.39-.52,0-1-.13-1.42-.39-.43-.25-.79-.64-1.1-1.15s-.54-1.15-.71-1.93c-.17-.77-.25-1.68-.25-2.72v-1.67c0-1.02,.08-1.92,.25-2.7,.17-.78,.4-1.42,.71-1.94,.31-.52,.67-.91,1.09-1.16,.42-.25,.88-.38,1.39-.38s1,.13,1.43,.38c.43,.26,.8,.64,1.11,1.16,.31,.52,.55,1.16,.71,1.94,.17,.77,.25,1.67,.25,2.7v1.67Z"/>
        <path class="cls-3" d="M99.76,71.48c-.22-4.28-2.77-7.03-5.97-7.08-.16,0-.31,0-.47,.01-.02,0-.04,0-.06,0-.18,.01-.36,.03-.53,.06,0,0,0,0,0,0-.16,.02-.31,.06-.45,.09-.06,.01-.12,.03-.18,.05-.09,.02-.18,.05-.26,.08-.07,.02-.15,.05-.22,.07-.08,.03-.15,.05-.22,.08-.07,.03-.14,.05-.21,.08-.09,.04-.18,.08-.27,.12-.04,.02-.08,.04-.12,.06-1.38,.67-2.2,1.07-2.2,1.07v-.25c0-.57-.46-1.03-1.03-1.03h-3.21v29.56h5.04v-9.97c.41,.12,.7,.18,.95,.3,4.96,2.28,9.3-.38,9.46-5.85,.07-2.48,.1-4.97-.03-7.45Zm-5.25,9.29l-.04,.07c-.96,1.91-3.27,2.17-4.44,.35-1.82-2.34-2.13-12.95,2-13.21,1.93,.04,2.81,2.1,3.11,3.87,.38,2.81,.52,6.42-.63,8.92Z"/>
        <g>
          <path class="cls-3" d="M143.34,81.5v-1.17s0,.01,0,.02c-.05,.43-.06,.82,0,1.15Z"/>
          <path class="cls-3" d="M145.51,82.7h-2.18v-1.2c-.06-.32-.05-.71,0-1.15,0,0,0-.01,0-.02,0-.01,0-.03,0-.04v-3.56c-.02-1.68-.01-3.37,0-5.05v-10.9l-.33-6.34-.7,.33-4.01,1.91-.2,.1,.14,.1,1.66,1.26v7.48c-.48-.13-1.03-.23-1.59-.29-.37,.04-.79,.02-1.27-.05-.27-.04-.53-.06-.79-.08-.9-.02-1.61,.01-1.8,.02,0,0,0,0-.01,0-2.07,.22-3.86,1.17-5.31,3.15-2.75,3.77-3,9.92-.36,13.75,2.26,3.29,5.66,4.3,8.99,2.78,.49-.22,1.06-.79,1.59-.88,.02,0,.03,0,.05-.01,.58-.09,.8,.34,.88,.74,.07,.37,.43,.61,.8,.57,.13-.01,.24-.03,.32-.04,2.79-.55,4.29-2.57,4.29-2.57h-.14Zm-5.82-1.86c-.14,2.45-1.92,3.54-4.23,2.61-2.56-1.03-4.11-2.87-4.43-5.67-.33-2.86-.17-5.66,.93-8.35,.52-1.28,1.28-2.41,2.65-2.88,2.33-.8,4.49-.47,4.81,2.4,.26,2.33,.16,4.63,.29,6.35,0,2.24,.07,3.89-.02,5.54Z"/>
        </g>
        <path class="cls-3" d="M236.86,72.81c-.55-4.4-3.7-7.45-8.14-7.92-4.09-.43-7.31,1.99-8.75,6.09-.98,2.78-.91,5.57-.05,8.35,1.44,4.66,4.87,6.94,9.68,6.04,4.6-.86,7.57-5.08,7.43-10.54-.05-.67-.08-1.35-.16-2.02Zm-4.55,8.59c-.73,1.82-2.1,2.99-4.06,3.11-1.9,.12-3.37-.92-4.13-2.62-2.06-4.61-2.13-9.32,.08-13.85,1.44-2.94,4.7-3.03,6.87-.42,1.89,2.27,2.27,4.99,2.13,7.83,.09,2.04-.14,4.04-.9,5.94Z"/>
      </g>
      <g>
        <path class="cls-3" d="M98.66,20.09v17.87c0,1.44,.05,2.46,.14,3.06,.09,.6,.35,1.06,.78,1.36,.43,.31,1.13,.46,2.12,.46v.96h-7.61v-.96c.99,0,1.7-.15,2.12-.46,.43-.31,.69-.76,.78-1.36,.09-.6,.14-1.62,.14-3.06V17.44c-.69-1.09-1.36-1.86-2-2.3-.64-.44-1.42-.66-2.32-.66v-.96h5.85l12.9,22.4V19.37c0-1.44-.05-2.46-.14-3.07-.09-.6-.35-1.05-.78-1.36-.43-.31-1.14-.46-2.12-.46v-.96h7.61v.96c-.99,0-1.7,.15-2.12,.46-.43,.31-.69,.76-.78,1.36-.09,.6-.14,1.62-.14,3.07l.04,24.96h-.68l-13.78-24.24Z"/>
        <path class="cls-3" d="M122.6,39.64c.28,1.04,.9,1.56,1.86,1.56,1.12,0,2.28-.93,3.49-2.8v-9.58c0-1.44-.03-2.46-.1-3.06-.07-.6-.25-1.05-.56-1.36-.31-.31-.82-.46-1.54-.46v-.96h4.93v14.18c0,1.39,.07,2.38,.2,2.98,.13,.6,.43,.9,.88,.9,.24,0,.6-.13,1.08-.4l.48,.84-4.57,2.64h-.8v-4.13c-.08,.11-.37,.58-.88,1.42-.51,.84-1.1,1.5-1.76,1.98-.67,.48-1.36,.72-2.08,.72-1.39,0-2.36-.75-2.92-2.24-.56-1.5-.84-3.34-.84-5.53v-7.53c0-1.44-.03-2.46-.1-3.06-.07-.6-.25-1.05-.56-1.36-.31-.31-.82-.46-1.54-.46v-.96h4.93v13.02c0,1.39,.14,2.6,.42,3.65Z"/>
        <path class="cls-3" d="M135.6,28.46c.45-1.66,1.17-3.04,2.14-4.15,.97-1.11,2.21-1.66,3.71-1.66,1.87,0,3.29,.83,4.27,2.48,.97,1.66,1.46,3.62,1.46,5.89v.08h-9.86c0,1.42,.17,2.83,.52,4.25,.35,1.42,.91,2.6,1.68,3.57,.77,.96,1.74,1.44,2.88,1.44s1.95-.42,2.56-1.26c.61-.84,1.12-1.96,1.52-3.35l.72,.2c-.16,1.26-.48,2.5-.96,3.75-.48,1.24-1.16,2.29-2.04,3.15-.88,.86-1.92,1.28-3.12,1.28-1.34,0-2.46-.51-3.39-1.54-.92-1.03-1.62-2.35-2.08-3.97-.47-1.62-.7-3.31-.7-5.07s.23-3.43,.68-5.09Zm2.74-2.4c-.57,1.1-.92,2.3-1.02,3.61h6.41c-.05-1.44-.32-2.68-.8-3.71s-1.22-1.54-2.2-1.54-1.81,.55-2.38,1.64Z"/>
        <path class="cls-3" d="M149.38,24.91c-.43-.65-1.02-.98-1.76-.98v-.96h7.45v.96c-.83,0-1.41,.09-1.74,.28-.33,.19-.5,.51-.5,.96,0,.32,.08,.75,.24,1.3,.16,.55,.25,.89,.28,1.02l.32,1.08,2.84,9.66,2.72-9.66c.05-.19,.2-.69,.44-1.5,.24-.81,.36-1.44,.36-1.86,0-.45-.17-.78-.5-.98-.33-.2-.92-.3-1.74-.3v-.96h5.97v.96c-.75,0-1.34,.33-1.76,.98-.43,.65-.9,1.88-1.4,3.67l-4.49,15.55h-.76l-4.57-15.55c-.51-1.79-.98-3.01-1.4-3.67Z"/>
        <path class="cls-3" d="M165.05,27.68c.59-1.59,1.41-2.82,2.46-3.71,1.05-.88,2.26-1.32,3.63-1.32s2.57,.44,3.63,1.32c1.05,.88,1.88,2.12,2.46,3.71,.59,1.59,.88,3.43,.88,5.51s-.29,3.99-.88,5.65c-.59,1.66-1.42,2.95-2.48,3.89-1.07,.94-2.27,1.4-3.61,1.4s-2.54-.47-3.61-1.4c-1.07-.93-1.9-2.23-2.48-3.89-.59-1.66-.88-3.54-.88-5.65s.29-3.92,.88-5.51Zm9.25,12.42c.48-1.54,.72-3.28,.72-5.23,0-2.59-.33-5.01-1-7.25-.67-2.24-1.79-3.37-3.37-3.37-1.23,0-2.11,.71-2.64,2.12-.53,1.42-.8,3.1-.8,5.05,0,1.52,.13,3.13,.4,4.81,.27,1.68,.73,3.13,1.4,4.35,.67,1.22,1.55,1.82,2.64,1.82,1.28,0,2.16-.77,2.64-2.3Z"/>
        <path class="cls-3" d="M188.81,28.46c.45-1.66,1.17-3.04,2.14-4.15,.97-1.11,2.21-1.66,3.71-1.66,1.87,0,3.29,.83,4.27,2.48,.97,1.66,1.46,3.62,1.46,5.89v.08h-9.86c0,1.42,.17,2.83,.52,4.25,.35,1.42,.91,2.6,1.68,3.57,.77,.96,1.74,1.44,2.88,1.44s1.95-.42,2.56-1.26c.61-.84,1.12-1.96,1.52-3.35l.72,.2c-.16,1.26-.48,2.5-.96,3.75-.48,1.24-1.16,2.29-2.04,3.15-.88,.86-1.92,1.28-3.12,1.28-1.34,0-2.46-.51-3.39-1.54-.92-1.03-1.62-2.35-2.08-3.97-.47-1.62-.7-3.31-.7-5.07s.23-3.43,.68-5.09Zm2.74-2.4c-.57,1.1-.92,2.3-1.02,3.61h6.41c-.05-1.44-.32-2.68-.8-3.71s-1.22-1.54-2.2-1.54-1.81,.55-2.38,1.64Z"/>
        <path class="cls-3" d="M211.08,42.84c.72,0,1.24-.15,1.54-.46,.31-.31,.49-.76,.56-1.36,.07-.6,.1-1.62,.1-3.06v-7.17c0-1.39-.14-2.6-.42-3.65-.28-1.04-.9-1.56-1.86-1.56-1.12,0-2.28,.93-3.49,2.8v9.58c0,1.44,.03,2.46,.1,3.06,.07,.6,.25,1.06,.56,1.36,.31,.31,.82,.46,1.54,.46v.96h-7.13v-.96c.72,0,1.24-.15,1.54-.46,.31-.31,.49-.76,.56-1.36,.07-.6,.1-1.62,.1-3.06v-8.33c0-1.39-.07-2.38-.2-2.98-.13-.6-.43-.9-.88-.9-.24,0-.6,.13-1.08,.4l-.48-.84,4.57-2.64h.8v4.13c.08-.11,.37-.58,.88-1.42,.51-.84,1.09-1.5,1.76-1.98,.67-.48,1.36-.72,2.08-.72,1.39,0,2.36,.75,2.92,2.24,.56,1.5,.84,3.34,.84,5.53v7.53c0,1.44,.03,2.46,.1,3.06,.07,.6,.25,1.06,.56,1.36,.31,.31,.82,.46,1.54,.46v.96h-7.13v-.96Z"/>
      </g>
    </g>
  </g>
</svg>